<svg viewBox="0 0 256 2<svg viewBox="0 0 256 256" xmlns="http://www.w3.org/2000/svg" version="1.1"><style>#rt {transform-origin:center; animation:6s linear infinite rotation;} @keyframes rotation{0%{transform: rotateY(0deg);} 100%{transform: rotateY(360deg); } }</style><g id="rt"><path d="m0 0h16v16h-16z" fill="#bfbfbf"></path><path d="m16 0h16v16h-16z" fill="#bfbfbf"></path><path d="m32 0h16v16h-16z" fill="#bfbfbf"></path><path d="m48 0h16v16h-16z" fill="#c8c8c8"></path><path d="m64 0h16v16h-16z" fill="#d0d0d0"></path><path d="m80 0h16v16h-16z" fill="#d1d1d1"></path><path d="m96 0h16v16h-16z" fill="#dadada"></path><path d="m112 0h16v16h-16z" fill="#e2e2e2"></path><path d="m128 0h16v16h-16z" fill="#e3e3e3"></path><path d="m144 0h16v16h-16z" fill="#ebebeb"></path><path d="m160 0h16v16h-16z" fill="#ececec"></path><path d="m176 0h16v16h-16z" fill="#f5f5f5"></path><path d="m192 0h16v16h-16z" fill="#fefefe"></path><path d="m208 0h16v16h-16z" fill="#ffffff"></path><path d="m224 0h16v16h-16z" fill="#ffffff"></path><path d="m240 0h16v16h-16z" fill="#ffffff"></path><path d="m0 16h16v16h-16z" fill="#aeaeae"></path><path d="m16 16h16v16h-16z" fill="#207285"></path><path d="m32 16h16v16h-16z" fill="#216f82"></path><path d="m48 16h16v16h-16z" fill="#236b80"></path><path d="m64 16h16v16h-16z" fill="#24677d"></path><path d="m80 16h16v16h-16z" fill="#25647b"></path><path d="m96 16h16v16h-16z" fill="#266079"></path><path d="m112 16h16v16h-16z" fill="#285c76"></path><path d="m128 16h16v16h-16z" fill="#295974"></path><path d="m144 16h16v16h-16z" fill="#2a5571"></path><path d="m160 16h16v16h-16z" fill="#2c526f"></path><path d="m176 16h16v16h-16z" fill="#2d4e6c"></path><path d="m192 16h16v16h-16z" fill="#2e4b6a"></path><path d="m208 16h16v16h-16z" fill="#2f4767"></path><path d="m224 16h16v16h-16z" fill="#314465"></path><path d="m240 16h16v16h-16z" fill="#eef0f2"></path><path d="m0 32h16v16h-16z" fill="#a5a5a5"></path><path d="m16 32h16v16h-16z" fill="#217385"></path><path d="m32 32h16v16h-16z" fill="#226f83"></path><path d="m48 32h16v16h-16z" fill="#236c80"></path><path d="m64 32h16v16h-16z" fill="#24687e"></path><path d="m80 32h16v16h-16z" fill="#26647b"></path><path d="m96 32h16v16h-16z" fill="#276179"></path><path d="m112 32h16v16h-16z" fill="#285d76"></path><path d="m128 32h16v16h-16z" fill="#295974"></path><path d="m144 32h16v16h-16z" fill="#2b5672"></path><path d="m160 32h16v16h-16z" fill="#2c526f"></path><path d="m176 32h16v16h-16z" fill="#2d4e6d"></path><path d="m192 32h16v16h-16z" fill="#2e4b6a"></path><path d="m208 32h16v16h-16z" fill="#304868"></path><path d="m224 32h16v16h-16z" fill="#314465"></path><path d="m240 32h16v16h-16z" fill="#eff0f1"></path><path d="m0 48h16v16h-16z" fill="#a4a4a4"></path><path d="m16 48h16v16h-16z" fill="#217385"></path><path d="m32 48h16v16h-16z" fill="#226f82"></path><path d="m48 48h16v16h-16z" fill="#236c80"></path><path d="m64 48h16v16h-16z" fill="#24687e"></path><path d="m80 48h16v16h-16z" fill="#26647b"></path><path d="m96 48h16v16h-16z" fill="#276179"></path><path d="m112 48h16v16h-16z" fill="#285d76"></path><path d="m128 48h16v16h-16z" fill="#295974"></path><path d="m144 48h16v16h-16z" fill="#2b5672"></path><path d="m160 48h16v16h-16z" fill="#2c526f"></path><path d="m176 48h16v16h-16z" fill="#2d4e6d"></path><path d="m192 48h16v16h-16z" fill="#2e4b6a"></path><path d="m208 48h16v16h-16z" fill="#304868"></path><path d="m224 48h16v16h-16z" fill="#314465"></path><path d="m240 48h16v16h-16z" fill="#e5e6e8"></path><path d="m0 64h16v16h-16z" fill="#9c9c9c"></path><path d="m16 64h16v16h-16z" fill="#217285"></path><path d="m32 64h16v16h-16z" fill="#226f82"></path><path d="m48 64h16v16h-16z" fill="#236b80"></path><path d="m64 64h16v16h-16z" fill="#24677e"></path><path d="m80 64h16v16h-16z" fill="#25647b"></path><path d="m96 64h16v16h-16z" fill="#266079"></path><path d="m112 64h16v16h-16z" fill="#285d76"></path><path d="m128 64h16v16h-16z" fill="#295974"></path><path d="m144 64h16v16h-16z" fill="#2a5572"></path><path d="m160 64h16v16h-16z" fill="#2c526f"></path><path d="m176 64h16v16h-16z" fill="#2e4e6d"></path><path d="m192 64h16v16h-16z" fill="#2e4b6a"></path><path d="m208 64h16v16h-16z" fill="#2f4867"></path><path d="m224 64h16v16h-16z" fill="#314465"></path><path d="m240 64h16v16h-16z" fill="#e5e6e8"></path><path d="m0 80h16v16h-16z" fill="#939393"></path><path d="m16 80h16v16h-16z" fill="#207285"></path><path d="m32 80h16v16h-16z" fill="#216e82"></path><path d="m48 80h16v16h-16z" fill="#236b80"></path><path d="m64 80h16v16h-16z" fill="#24677d"></path><path d="m80 80h16v16h-16z" fill="#25637b"></path><path d="m96 80h16v16h-16z" fill="#266079"></path><path d="m112 80h16v16h-16z" fill="#285c76"></path><path d="m128 80h16v16h-16z" fill="#295974"></path><path d="m144 80h16v16h-16z" fill="#2a5571"></path><path d="m160 80h16v16h-16z" fill="#2c516f"></path><path d="m176 80h16v16h-16z" fill="#2d4e6c"></path><path d="m192 80h16v16h-16z" fill="#2e4b69"></path><path d="m208 80h16v16h-16z" fill="#2f4767"></path><path d="m224 80h16v16h-16z" fill="#314464"></path><path d="m240 80h16v16h-16z" fill="#dfdfdf"></path><path d="m0 96h16v16h-16z" fill="#898989"></path><path d="m16 96h16v16h-16z" fill="#217385"></path><path d="m32 96h16v16h-16z" fill="#227083"></path><path d="m48 96h16v16h-16z" fill="#246c80"></path><path d="m64 96h16v16h-16z" fill="#25687e"></path><path d="m80 96h16v16h-16z" fill="#26657c"></path><path d="m96 96h16v16h-16z" fill="#276179"></path><path d="m112 96h16v16h-16z" fill="#285d77"></path><path d="m128 96h16v16h-16z" fill="#2a5a74"></path><path d="m144 96h16v16h-16z" fill="#2b5672"></path><path d="m160 96h16v16h-16z" fill="#2c536f"></path><path d="m176 96h16v16h-16z" fill="#2d4f6d"></path><path d="m192 96h16v16h-16z" fill="#2e4b6a"></path><path d="m208 96h16v16h-16z" fill="#304868"></path><path d="m224 96h16v16h-16z" fill="#314465"></path><path d="m240 96h16v16h-16z" fill="#d6d6d6"></path><path d="m0 112h16v16h-16z" fill="#898989"></path><path d="m16 112h16v16h-16z" fill="#227385"></path><path d="m32 112h16v16h-16z" fill="#237083"></path><path d="m48 112h16v16h-16z" fill="#246c80"></path><path d="m64 112h16v16h-16z" fill="#25687e"></path><path d="m80 112h16v16h-16z" fill="#27657b"></path><path d="m96 112h16v16h-16z" fill="#276179"></path><path d="m112 112h16v16h-16z" fill="#295e77"></path><path d="m128 112h16v16h-16z" fill="#2a5a74"></path><path d="m144 112h16v16h-16z" fill="#2b5672"></path><path d="m160 112h16v16h-16z" fill="#2c536f"></path><path d="m176 112h16v16h-16z" fill="#2e4f6d"></path><path d="m192 112h16v16h-16z" fill="#2e4b6b"></path><path d="m208 112h16v16h-16z" fill="#304868"></path><path d="m224 112h16v16h-16z" fill="#314466"></path><path d="m240 112h16v16h-16z" fill="#cbccce"></path><path d="m0 128h16v16h-16z" fill="#808080"></path><path d="m16 128h16v16h-16z" fill="#217385"></path><path d="m32 128h16v16h-16z" fill="#226f83"></path><path d="m48 128h16v16h-16z" fill="#246c80"></path><path d="m64 128h16v16h-16z" fill="#25687e"></path><path d="m80 128h16v16h-16z" fill="#26647b"></path><path d="m96 128h16v16h-16z" fill="#276179"></path><path d="m112 128h16v16h-16z" fill="#285d76"></path><path d="m128 128h16v16h-16z" fill="#2a5a74"></path><path d="m144 128h16v16h-16z" fill="#2b5672"></path><path d="m160 128h16v16h-16z" fill="#2c526f"></path><path d="m176 128h16v16h-16z" fill="#2d4f6d"></path><path d="m192 128h16v16h-16z" fill="#2f4b6a"></path><path d="m208 128h16v16h-16z" fill="#304868"></path><path d="m224 128h16v16h-16z" fill="#314465"></path><path d="m240 128h16v16h-16z" fill="#cacbcd"></path><path d="m0 144h16v16h-16z" fill="#767676"></path><path d="m16 144h16v16h-16z" fill="#217385"></path><path d="m32 144h16v16h-16z" fill="#227083"></path><path d="m48 144h16v16h-16z" fill="#246c80"></path><path d="m64 144h16v16h-16z" fill="#25687e"></path><path d="m80 144h16v16h-16z" fill="#26657c"></path><path d="m96 144h16v16h-16z" fill="#276179"></path><path d="m112 144h16v16h-16z" fill="#285d77"></path><path d="m128 144h16v16h-16z" fill="#2a5a74"></path><path d="m144 144h16v16h-16z" fill="#2b5672"></path><path d="m160 144h16v16h-16z" fill="#2c526f"></path><path d="m176 144h16v16h-16z" fill="#2d4f6d"></path><path d="m192 144h16v16h-16z" fill="#2f4b6a"></path><path d="m208 144h16v16h-16z" fill="#304868"></path><path d="m224 144h16v16h-16z" fill="#314465"></path><path d="m240 144h16v16h-16z" fill="#c1c2c3"></path><path d="m0 160h16v16h-16z" fill="#6f6f6f"></path><path d="m16 160h16v16h-16z" fill="#207285"></path><path d="m32 160h16v16h-16z" fill="#226f82"></path><path d="m48 160h16v16h-16z" fill="#236b80"></path><path d="m64 160h16v16h-16z" fill="#24677d"></path><path d="m80 160h16v16h-16z" fill="#25647b"></path><path d="m96 160h16v16h-16z" fill="#266079"></path><path d="m112 160h16v16h-16z" fill="#285d76"></path><path d="m128 160h16v16h-16z" fill="#295974"></path><path d="m144 160h16v16h-16z" fill="#2a5571"></path><path d="m160 160h16v16h-16z" fill="#2c526f"></path><path d="m176 160h16v16h-16z" fill="#2d4e6d"></path><path d="m192 160h16v16h-16z" fill="#2e4b6a"></path><path d="m208 160h16v16h-16z" fill="#304767"></path><path d="m224 160h16v16h-16z" fill="#314465"></path><path d="m240 160h16v16h-16z" fill="#b9babb"></path><path d="m0 176h16v16h-16z" fill="#6f6f6f"></path><path d="m16 176h16v16h-16z" fill="#217385"></path><path d="m32 176h16v16h-16z" fill="#226f82"></path><path d="m48 176h16v16h-16z" fill="#236b80"></path><path d="m64 176h16v16h-16z" fill="#24687d"></path><path d="m80 176h16v16h-16z" fill="#25647b"></path><path d="m96 176h16v16h-16z" fill="#276079"></path><path d="m112 176h16v16h-16z" fill="#285d76"></path><path d="m128 176h16v16h-16z" fill="#295974"></path><path d="m144 176h16v16h-16z" fill="#2a5571"></path><path d="m160 176h16v16h-16z" fill="#2c526f"></path><path d="m176 176h16v16h-16z" fill="#2d4e6c"></path><path d="m192 176h16v16h-16z" fill="#2e4b6a"></path><path d="m208 176h16v16h-16z" fill="#2f4767"></path><path d="m224 176h16v16h-16z" fill="#314465"></path><path d="m240 176h16v16h-16z" fill="#b0b1b3"></path><path d="m0 192h16v16h-16z" fill="#656565"></path><path d="m16 192h16v16h-16z" fill="#217385"></path><path d="m32 192h16v16h-16z" fill="#226f83"></path><path d="m48 192h16v16h-16z" fill="#236b80"></path><path d="m64 192h16v16h-16z" fill="#24687e"></path><path d="m80 192h16v16h-16z" fill="#25647b"></path><path d="m96 192h16v16h-16z" fill="#276079"></path><path d="m112 192h16v16h-16z" fill="#285d76"></path><path d="m128 192h16v16h-16z" fill="#295974"></path><path d="m144 192h16v16h-16z" fill="#2a5572"></path><path d="m160 192h16v16h-16z" fill="#2c526f"></path><path d="m176 192h16v16h-16z" fill="#2d4e6d"></path><path d="m192 192h16v16h-16z" fill="#2f4b6a"></path><path d="m208 192h16v16h-16z" fill="#304867"></path><path d="m224 192h16v16h-16z" fill="#314465"></path><path d="m240 192h16v16h-16z" fill="#aeb0b1"></path><path d="m0 208h16v16h-16z" fill="#5c5c5c"></path><path d="m16 208h16v16h-16z" fill="#207285"></path><path d="m32 208h16v16h-16z" fill="#226f82"></path><path d="m48 208h16v16h-16z" fill="#236b80"></path><path d="m64 208h16v16h-16z" fill="#24677d"></path><path d="m80 208h16v16h-16z" fill="#25647b"></path><path d="m96 208h16v16h-16z" fill="#266079"></path><path d="m112 208h16v16h-16z" fill="#285c76"></path><path d="m128 208h16v16h-16z" fill="#295974"></path><path d="m144 208h16v16h-16z" fill="#2a5571"></path><path d="m160 208h16v16h-16z" fill="#2c516f"></path><path d="m176 208h16v16h-16z" fill="#2d4e6c"></path><path d="m192 208h16v16h-16z" fill="#2e4b69"></path><path d="m208 208h16v16h-16z" fill="#304867"></path><path d="m224 208h16v16h-16z" fill="#314464"></path><path d="m240 208h16v16h-16z" fill="#a5a6a8"></path><path d="m0 224h16v16h-16z" fill="#535353"></path><path d="m16 224h16v16h-16z" fill="#207284"></path><path d="m32 224h16v16h-16z" fill="#216e82"></path><path d="m48 224h16v16h-16z" fill="#236a7f"></path><path d="m64 224h16v16h-16z" fill="#23677d"></path><path d="m80 224h16v16h-16z" fill="#25637a"></path><path d="m96 224h16v16h-16z" fill="#266078"></path><path d="m112 224h16v16h-16z" fill="#275d75"></path><path d="m128 224h16v16h-16z" fill="#295973"></path><path d="m144 224h16v16h-16z" fill="#2a5571"></path><path d="m160 224h16v16h-16z" fill="#2b526e"></path><path d="m176 224h16v16h-16z" fill="#2c4e6c"></path><path d="m192 224h16v16h-16z" fill="#2e4b6a"></path><path d="m208 224h16v16h-16z" fill="#2f4767"></path><path d="m224 224h16v16h-16z" fill="#304364"></path><path d="m240 224h16v16h-16z" fill="#9e9fa0"></path><path d="m0 240h16v16h-16z" fill="#535353"></path><path d="m16 240h16v16h-16z" fill="#3e454b"></path><path d="m32 240h16v16h-16z" fill="#474d53"></path><path d="m48 240h16v16h-16z" fill="#484e53"></path><path d="m64 240h16v16h-16z" fill="#50565c"></path><path d="m80 240h16v16h-16z" fill="#5b6065"></path><path d="m96 240h16v16h-16z" fill="#5c6064"></path><path d="m112 240h16v16h-16z" fill="#64686b"></path><path d="m128 240h16v16h-16z" fill="#6d7174"></path><path d="m144 240h16v16h-16z" fill="#6e7175"></path><path d="m160 240h16v16h-16z" fill="#787a7c"></path><path d="m176 240h16v16h-16z" fill="#808385"></path><path d="m192 240h16v16h-16z" fill="#828486"></path><path d="m208 240h16v16h-16z" fill="#8a8c8e"></path><path d="m224 240h16v16h-16z" fill="#939597"></path><path d="m240 240h16v16h-16z" fill="#9c9c9c"></path></g></svg>56" xmlns="http://www.w3.org/2000/svg" version="1.1"><style>#rt {animation:6s linear infinite rotation;} @keyframes rotation{0%{transform: rotateY(0deg) translate(-50%);} 50%{transform: rotateY(180deg) translate(-50%);} 100%{transform: rotateY(360deg) translate(-50%); } }</style><g id="rt"><path d="m0 0h16v16h-16z" fill="#bfbfbf"></path><path d="m16 0h16v16h-16z" fill="#bfbfbf"></path><path d="m32 0h16v16h-16z" fill="#bfbfbf"></path><path d="m48 0h16v16h-16z" fill="#c8c8c8"></path><path d="m64 0h16v16h-16z" fill="#d0d0d0"></path><path d="m80 0h16v16h-16z" fill="#d1d1d1"></path><path d="m96 0h16v16h-16z" fill="#dadada"></path><path d="m112 0h16v16h-16z" fill="#e2e2e2"></path><path d="m128 0h16v16h-16z" fill="#e3e3e3"></path><path d="m144 0h16v16h-16z" fill="#ebebeb"></path><path d="m160 0h16v16h-16z" fill="#ececec"></path><path d="m176 0h16v16h-16z" fill="#f5f5f5"></path><path d="m192 0h16v16h-16z" fill="#fefefe"></path><path d="m208 0h16v16h-16z" fill="#ffffff"></path><path d="m224 0h16v16h-16z" fill="#ffffff"></path><path d="m240 0h16v16h-16z" fill="#ffffff"></path><path d="m0 16h16v16h-16z" fill="#aeaeae"></path><path d="m16 16h16v16h-16z" fill="#207285"></path><path d="m32 16h16v16h-16z" fill="#216f82"></path><path d="m48 16h16v16h-16z" fill="#236b80"></path><path d="m64 16h16v16h-16z" fill="#24677d"></path><path d="m80 16h16v16h-16z" fill="#25647b"></path><path d="m96 16h16v16h-16z" fill="#266079"></path><path d="m112 16h16v16h-16z" fill="#285c76"></path><path d="m128 16h16v16h-16z" fill="#295974"></path><path d="m144 16h16v16h-16z" fill="#2a5571"></path><path d="m160 16h16v16h-16z" fill="#2c526f"></path><path d="m176 16h16v16h-16z" fill="#2d4e6c"></path><path d="m192 16h16v16h-16z" fill="#2e4b6a"></path><path d="m208 16h16v16h-16z" fill="#2f4767"></path><path d="m224 16h16v16h-16z" fill="#314465"></path><path d="m240 16h16v16h-16z" fill="#eef0f2"></path><path d="m0 32h16v16h-16z" fill="#a5a5a5"></path><path d="m16 32h16v16h-16z" fill="#217385"></path><path d="m32 32h16v16h-16z" fill="#226f83"></path><path d="m48 32h16v16h-16z" fill="#236c80"></path><path d="m64 32h16v16h-16z" fill="#24687e"></path><path d="m80 32h16v16h-16z" fill="#26647b"></path><path d="m96 32h16v16h-16z" fill="#276179"></path><path d="m112 32h16v16h-16z" fill="#285d76"></path><path d="m128 32h16v16h-16z" fill="#295974"></path><path d="m144 32h16v16h-16z" fill="#2b5672"></path><path d="m160 32h16v16h-16z" fill="#2c526f"></path><path d="m176 32h16v16h-16z" fill="#2d4e6d"></path><path d="m192 32h16v16h-16z" fill="#2e4b6a"></path><path d="m208 32h16v16h-16z" fill="#304868"></path><path d="m224 32h16v16h-16z" fill="#314465"></path><path d="m240 32h16v16h-16z" fill="#eff0f1"></path><path d="m0 48h16v16h-16z" fill="#a4a4a4"></path><path d="m16 48h16v16h-16z" fill="#217385"></path><path d="m32 48h16v16h-16z" fill="#226f82"></path><path d="m48 48h16v16h-16z" fill="#236c80"></path><path d="m64 48h16v16h-16z" fill="#24687e"></path><path d="m80 48h16v16h-16z" fill="#26647b"></path><path d="m96 48h16v16h-16z" fill="#276179"></path><path d="m112 48h16v16h-16z" fill="#285d76"></path><path d="m128 48h16v16h-16z" fill="#295974"></path><path d="m144 48h16v16h-16z" fill="#2b5672"></path><path d="m160 48h16v16h-16z" fill="#2c526f"></path><path d="m176 48h16v16h-16z" fill="#2d4e6d"></path><path d="m192 48h16v16h-16z" fill="#2e4b6a"></path><path d="m208 48h16v16h-16z" fill="#304868"></path><path d="m224 48h16v16h-16z" fill="#314465"></path><path d="m240 48h16v16h-16z" fill="#e5e6e8"></path><path d="m0 64h16v16h-16z" fill="#9c9c9c"></path><path d="m16 64h16v16h-16z" fill="#217285"></path><path d="m32 64h16v16h-16z" fill="#226f82"></path><path d="m48 64h16v16h-16z" fill="#236b80"></path><path d="m64 64h16v16h-16z" fill="#24677e"></path><path d="m80 64h16v16h-16z" fill="#25647b"></path><path d="m96 64h16v16h-16z" fill="#266079"></path><path d="m112 64h16v16h-16z" fill="#285d76"></path><path d="m128 64h16v16h-16z" fill="#295974"></path><path d="m144 64h16v16h-16z" fill="#2a5572"></path><path d="m160 64h16v16h-16z" fill="#2c526f"></path><path d="m176 64h16v16h-16z" fill="#2e4e6d"></path><path d="m192 64h16v16h-16z" fill="#2e4b6a"></path><path d="m208 64h16v16h-16z" fill="#2f4867"></path><path d="m224 64h16v16h-16z" fill="#314465"></path><path d="m240 64h16v16h-16z" fill="#e5e6e8"></path><path d="m0 80h16v16h-16z" fill="#939393"></path><path d="m16 80h16v16h-16z" fill="#207285"></path><path d="m32 80h16v16h-16z" fill="#216e82"></path><path d="m48 80h16v16h-16z" fill="#236b80"></path><path d="m64 80h16v16h-16z" fill="#24677d"></path><path d="m80 80h16v16h-16z" fill="#25637b"></path><path d="m96 80h16v16h-16z" fill="#266079"></path><path d="m112 80h16v16h-16z" fill="#285c76"></path><path d="m128 80h16v16h-16z" fill="#295974"></path><path d="m144 80h16v16h-16z" fill="#2a5571"></path><path d="m160 80h16v16h-16z" fill="#2c516f"></path><path d="m176 80h16v16h-16z" fill="#2d4e6c"></path><path d="m192 80h16v16h-16z" fill="#2e4b69"></path><path d="m208 80h16v16h-16z" fill="#2f4767"></path><path d="m224 80h16v16h-16z" fill="#314464"></path><path d="m240 80h16v16h-16z" fill="#dfdfdf"></path><path d="m0 96h16v16h-16z" fill="#898989"></path><path d="m16 96h16v16h-16z" fill="#217385"></path><path d="m32 96h16v16h-16z" fill="#227083"></path><path d="m48 96h16v16h-16z" fill="#246c80"></path><path d="m64 96h16v16h-16z" fill="#25687e"></path><path d="m80 96h16v16h-16z" fill="#26657c"></path><path d="m96 96h16v16h-16z" fill="#276179"></path><path d="m112 96h16v16h-16z" fill="#285d77"></path><path d="m128 96h16v16h-16z" fill="#2a5a74"></path><path d="m144 96h16v16h-16z" fill="#2b5672"></path><path d="m160 96h16v16h-16z" fill="#2c536f"></path><path d="m176 96h16v16h-16z" fill="#2d4f6d"></path><path d="m192 96h16v16h-16z" fill="#2e4b6a"></path><path d="m208 96h16v16h-16z" fill="#304868"></path><path d="m224 96h16v16h-16z" fill="#314465"></path><path d="m240 96h16v16h-16z" fill="#d6d6d6"></path><path d="m0 112h16v16h-16z" fill="#898989"></path><path d="m16 112h16v16h-16z" fill="#227385"></path><path d="m32 112h16v16h-16z" fill="#237083"></path><path d="m48 112h16v16h-16z" fill="#246c80"></path><path d="m64 112h16v16h-16z" fill="#25687e"></path><path d="m80 112h16v16h-16z" fill="#27657b"></path><path d="m96 112h16v16h-16z" fill="#276179"></path><path d="m112 112h16v16h-16z" fill="#295e77"></path><path d="m128 112h16v16h-16z" fill="#2a5a74"></path><path d="m144 112h16v16h-16z" fill="#2b5672"></path><path d="m160 112h16v16h-16z" fill="#2c536f"></path><path d="m176 112h16v16h-16z" fill="#2e4f6d"></path><path d="m192 112h16v16h-16z" fill="#2e4b6b"></path><path d="m208 112h16v16h-16z" fill="#304868"></path><path d="m224 112h16v16h-16z" fill="#314466"></path><path d="m240 112h16v16h-16z" fill="#cbccce"></path><path d="m0 128h16v16h-16z" fill="#808080"></path><path d="m16 128h16v16h-16z" fill="#217385"></path><path d="m32 128h16v16h-16z" fill="#226f83"></path><path d="m48 128h16v16h-16z" fill="#246c80"></path><path d="m64 128h16v16h-16z" fill="#25687e"></path><path d="m80 128h16v16h-16z" fill="#26647b"></path><path d="m96 128h16v16h-16z" fill="#276179"></path><path d="m112 128h16v16h-16z" fill="#285d76"></path><path d="m128 128h16v16h-16z" fill="#2a5a74"></path><path d="m144 128h16v16h-16z" fill="#2b5672"></path><path d="m160 128h16v16h-16z" fill="#2c526f"></path><path d="m176 128h16v16h-16z" fill="#2d4f6d"></path><path d="m192 128h16v16h-16z" fill="#2f4b6a"></path><path d="m208 128h16v16h-16z" fill="#304868"></path><path d="m224 128h16v16h-16z" fill="#314465"></path><path d="m240 128h16v16h-16z" fill="#cacbcd"></path><path d="m0 144h16v16h-16z" fill="#767676"></path><path d="m16 144h16v16h-16z" fill="#217385"></path><path d="m32 144h16v16h-16z" fill="#227083"></path><path d="m48 144h16v16h-16z" fill="#246c80"></path><path d="m64 144h16v16h-16z" fill="#25687e"></path><path d="m80 144h16v16h-16z" fill="#26657c"></path><path d="m96 144h16v16h-16z" fill="#276179"></path><path d="m112 144h16v16h-16z" fill="#285d77"></path><path d="m128 144h16v16h-16z" fill="#2a5a74"></path><path d="m144 144h16v16h-16z" fill="#2b5672"></path><path d="m160 144h16v16h-16z" fill="#2c526f"></path><path d="m176 144h16v16h-16z" fill="#2d4f6d"></path><path d="m192 144h16v16h-16z" fill="#2f4b6a"></path><path d="m208 144h16v16h-16z" fill="#304868"></path><path d="m224 144h16v16h-16z" fill="#314465"></path><path d="m240 144h16v16h-16z" fill="#c1c2c3"></path><path d="m0 160h16v16h-16z" fill="#6f6f6f"></path><path d="m16 160h16v16h-16z" fill="#207285"></path><path d="m32 160h16v16h-16z" fill="#226f82"></path><path d="m48 160h16v16h-16z" fill="#236b80"></path><path d="m64 160h16v16h-16z" fill="#24677d"></path><path d="m80 160h16v16h-16z" fill="#25647b"></path><path d="m96 160h16v16h-16z" fill="#266079"></path><path d="m112 160h16v16h-16z" fill="#285d76"></path><path d="m128 160h16v16h-16z" fill="#295974"></path><path d="m144 160h16v16h-16z" fill="#2a5571"></path><path d="m160 160h16v16h-16z" fill="#2c526f"></path><path d="m176 160h16v16h-16z" fill="#2d4e6d"></path><path d="m192 160h16v16h-16z" fill="#2e4b6a"></path><path d="m208 160h16v16h-16z" fill="#304767"></path><path d="m224 160h16v16h-16z" fill="#314465"></path><path d="m240 160h16v16h-16z" fill="#b9babb"></path><path d="m0 176h16v16h-16z" fill="#6f6f6f"></path><path d="m16 176h16v16h-16z" fill="#217385"></path><path d="m32 176h16v16h-16z" fill="#226f82"></path><path d="m48 176h16v16h-16z" fill="#236b80"></path><path d="m64 176h16v16h-16z" fill="#24687d"></path><path d="m80 176h16v16h-16z" fill="#25647b"></path><path d="m96 176h16v16h-16z" fill="#276079"></path><path d="m112 176h16v16h-16z" fill="#285d76"></path><path d="m128 176h16v16h-16z" fill="#295974"></path><path d="m144 176h16v16h-16z" fill="#2a5571"></path><path d="m160 176h16v16h-16z" fill="#2c526f"></path><path d="m176 176h16v16h-16z" fill="#2d4e6c"></path><path d="m192 176h16v16h-16z" fill="#2e4b6a"></path><path d="m208 176h16v16h-16z" fill="#2f4767"></path><path d="m224 176h16v16h-16z" fill="#314465"></path><path d="m240 176h16v16h-16z" fill="#b0b1b3"></path><path d="m0 192h16v16h-16z" fill="#656565"></path><path d="m16 192h16v16h-16z" fill="#217385"></path><path d="m32 192h16v16h-16z" fill="#226f83"></path><path d="m48 192h16v16h-16z" fill="#236b80"></path><path d="m64 192h16v16h-16z" fill="#24687e"></path><path d="m80 192h16v16h-16z" fill="#25647b"></path><path d="m96 192h16v16h-16z" fill="#276079"></path><path d="m112 192h16v16h-16z" fill="#285d76"></path><path d="m128 192h16v16h-16z" fill="#295974"></path><path d="m144 192h16v16h-16z" fill="#2a5572"></path><path d="m160 192h16v16h-16z" fill="#2c526f"></path><path d="m176 192h16v16h-16z" fill="#2d4e6d"></path><path d="m192 192h16v16h-16z" fill="#2f4b6a"></path><path d="m208 192h16v16h-16z" fill="#304867"></path><path d="m224 192h16v16h-16z" fill="#314465"></path><path d="m240 192h16v16h-16z" fill="#aeb0b1"></path><path d="m0 208h16v16h-16z" fill="#5c5c5c"></path><path d="m16 208h16v16h-16z" fill="#207285"></path><path d="m32 208h16v16h-16z" fill="#226f82"></path><path d="m48 208h16v16h-16z" fill="#236b80"></path><path d="m64 208h16v16h-16z" fill="#24677d"></path><path d="m80 208h16v16h-16z" fill="#25647b"></path><path d="m96 208h16v16h-16z" fill="#266079"></path><path d="m112 208h16v16h-16z" fill="#285c76"></path><path d="m128 208h16v16h-16z" fill="#295974"></path><path d="m144 208h16v16h-16z" fill="#2a5571"></path><path d="m160 208h16v16h-16z" fill="#2c516f"></path><path d="m176 208h16v16h-16z" fill="#2d4e6c"></path><path d="m192 208h16v16h-16z" fill="#2e4b69"></path><path d="m208 208h16v16h-16z" fill="#304867"></path><path d="m224 208h16v16h-16z" fill="#314464"></path><path d="m240 208h16v16h-16z" fill="#a5a6a8"></path><path d="m0 224h16v16h-16z" fill="#535353"></path><path d="m16 224h16v16h-16z" fill="#207284"></path><path d="m32 224h16v16h-16z" fill="#216e82"></path><path d="m48 224h16v16h-16z" fill="#236a7f"></path><path d="m64 224h16v16h-16z" fill="#23677d"></path><path d="m80 224h16v16h-16z" fill="#25637a"></path><path d="m96 224h16v16h-16z" fill="#266078"></path><path d="m112 224h16v16h-16z" fill="#275d75"></path><path d="m128 224h16v16h-16z" fill="#295973"></path><path d="m144 224h16v16h-16z" fill="#2a5571"></path><path d="m160 224h16v16h-16z" fill="#2b526e"></path><path d="m176 224h16v16h-16z" fill="#2c4e6c"></path><path d="m192 224h16v16h-16z" fill="#2e4b6a"></path><path d="m208 224h16v16h-16z" fill="#2f4767"></path><path d="m224 224h16v16h-16z" fill="#304364"></path><path d="m240 224h16v16h-16z" fill="#9e9fa0"></path><path d="m0 240h16v16h-16z" fill="#535353"></path><path d="m16 240h16v16h-16z" fill="#3e454b"></path><path d="m32 240h16v16h-16z" fill="#474d53"></path><path d="m48 240h16v16h-16z" fill="#484e53"></path><path d="m64 240h16v16h-16z" fill="#50565c"></path><path d="m80 240h16v16h-16z" fill="#5b6065"></path><path d="m96 240h16v16h-16z" fill="#5c6064"></path><path d="m112 240h16v16h-16z" fill="#64686b"></path><path d="m128 240h16v16h-16z" fill="#6d7174"></path><path d="m144 240h16v16h-16z" fill="#6e7175"></path><path d="m160 240h16v16h-16z" fill="#787a7c"></path><path d="m176 240h16v16h-16z" fill="#808385"></path><path d="m192 240h16v16h-16z" fill="#828486"></path><path d="m208 240h16v16h-16z" fill="#8a8c8e"></path><path d="m224 240h16v16h-16z" fill="#939597"></path><path d="m240 240h16v16h-16z" fill="#9c9c9c"></path></g></svg>
